# xmcd CD database file
#
# Track frame offsets:
#	150
#	37729
#	75449
#	110700
#	141688
#	162076
#	199124
#	216459
#
# Disc length: 3205 seconds
#
# Revision: 0
# Processed by: cddbd v1.5.2PL0 Copyright (c) Steve Scherf et al.
# Submitted via: CDex 1.70beta2
#
DISCID=6f0c8308
DTITLE=Joe Morris Bass Quartet - High Definition
DYEAR=2007
DGENRE=Jazz
TTITLE0=Skeleton
TTITLE1=Morning Group
TTITLE2=Land Mass
TTITLE3=Topics
TTITLE4=Bearing
TTITLE5=All-In-One
TTITLE6=Super Spot
TTITLE7=The Air Has Color
EXTD=YEAR: 2007
EXTT0=
EXTT1=
EXTT2=
EXTT3=
EXTT4=
EXTT5=
EXTT6=
EXTT7=
PLAYORDER=
